<svg width="69" height="43" viewBox="0 0 69 43" fill="none" xmlns="http://www.w3.org/2000/svg">
<path d="M25.7001 20C28.0359 17.5226 31.2071 16 34.7001 16C38.1931 16 41.3643 17.5226 43.7001 20M39.2001 7.5C39.2001 9.98528 37.1854 12 34.7001 12C32.2148 12 30.2001 9.98528 30.2001 7.5C30.2001 5.01472 32.2148 3 34.7001 3C37.1854 3 39.2001 5.01472 39.2001 7.5Z" stroke="#229AFC" stroke-width="2" stroke-linecap="round" stroke-linejoin="round"/>
<path d="M17.2955 40V31.2727H20.4063C21.0853 31.2727 21.6478 31.3963 22.0938 31.6435C22.5399 31.8906 22.8737 32.2287 23.0953 32.6577C23.3169 33.0838 23.4277 33.5639 23.4277 34.098C23.4277 34.6349 23.3154 35.1179 23.091 35.5469C22.8694 35.973 22.5342 36.3111 22.0853 36.5611C21.6393 36.8082 21.0782 36.9318 20.4021 36.9318H18.2629V35.8153H20.2828C20.7117 35.8153 21.0598 35.7415 21.3268 35.5938C21.5938 35.4432 21.7899 35.2386 21.9149 34.9801C22.0399 34.7216 22.1024 34.4276 22.1024 34.098C22.1024 33.7685 22.0399 33.4759 21.9149 33.2202C21.7899 32.9645 21.5924 32.7642 21.3225 32.6193C21.0555 32.4744 20.7032 32.402 20.2657 32.402H18.6123V40H17.2955ZM24.8691 40V33.4545H26.1006V34.4943H26.1688C26.2881 34.142 26.4983 33.8651 26.7995 33.6634C27.1034 33.4588 27.4472 33.3565 27.8307 33.3565C27.9103 33.3565 28.004 33.3594 28.112 33.3651C28.2228 33.3707 28.3094 33.3778 28.3719 33.3864V34.6051C28.3208 34.5909 28.2299 34.5753 28.0992 34.5582C27.9685 34.5384 27.8378 34.5284 27.7071 34.5284C27.406 34.5284 27.1375 34.5923 26.9017 34.7202C26.6688 34.8452 26.4841 35.0199 26.3478 35.2443C26.2114 35.4659 26.1432 35.7187 26.1432 36.0028V40H24.8691ZM31.9973 40.1321C31.3836 40.1321 30.8481 39.9915 30.3907 39.7102C29.9333 39.429 29.5782 39.0355 29.3254 38.5298C29.0725 38.0241 28.9461 37.4332 28.9461 36.7571C28.9461 36.0781 29.0725 35.4844 29.3254 34.9759C29.5782 34.4673 29.9333 34.0724 30.3907 33.7912C30.8481 33.5099 31.3836 33.3693 31.9973 33.3693C32.6109 33.3693 33.1464 33.5099 33.6038 33.7912C34.0612 34.0724 34.4163 34.4673 34.6691 34.9759C34.922 35.4844 35.0484 36.0781 35.0484 36.7571C35.0484 37.4332 34.922 38.0241 34.6691 38.5298C34.4163 39.0355 34.0612 39.429 33.6038 39.7102C33.1464 39.9915 32.6109 40.1321 31.9973 40.1321ZM32.0015 39.0625C32.3992 39.0625 32.7288 38.9574 32.9902 38.7472C33.2515 38.5369 33.4447 38.2571 33.5697 37.9077C33.6975 37.5582 33.7615 37.1733 33.7615 36.7528C33.7615 36.3352 33.6975 35.9517 33.5697 35.6023C33.4447 35.25 33.2515 34.9673 32.9902 34.7543C32.7288 34.5412 32.3992 34.4347 32.0015 34.4347C31.6009 34.4347 31.2686 34.5412 31.0044 34.7543C30.743 34.9673 30.5484 35.25 30.4205 35.6023C30.2955 35.9517 30.233 36.3352 30.233 36.7528C30.233 37.1733 30.2955 37.5582 30.4205 37.9077C30.5484 38.2571 30.743 38.5369 31.0044 38.7472C31.2686 38.9574 31.6009 39.0625 32.0015 39.0625ZM39.5857 33.4545V34.4773H35.8868V33.4545H39.5857ZM36.901 40V32.696C36.901 32.2869 36.9905 31.9474 37.1695 31.6776C37.3485 31.4048 37.5857 31.2017 37.8811 31.0682C38.1766 30.9318 38.4976 30.8636 38.8442 30.8636C39.0999 30.8636 39.3186 30.8849 39.5005 30.9276C39.6823 30.9673 39.8172 31.0043 39.9053 31.0384L39.607 32.0696C39.5473 32.0526 39.4706 32.0327 39.3769 32.0099C39.2831 31.9844 39.1695 31.9716 39.036 31.9716C38.7263 31.9716 38.5047 32.0483 38.3712 32.2017C38.2405 32.3551 38.1752 32.5767 38.1752 32.8665V40H36.901ZM40.9003 40V33.4545H42.1745V40H40.9003ZM41.5438 32.4446C41.3222 32.4446 41.1318 32.3707 40.9728 32.223C40.8165 32.0724 40.7384 31.8935 40.7384 31.6861C40.7384 31.4759 40.8165 31.2969 40.9728 31.1491C41.1318 30.9986 41.3222 30.9233 41.5438 30.9233C41.7654 30.9233 41.9543 30.9986 42.1105 31.1491C42.2696 31.2969 42.3492 31.4759 42.3492 31.6861C42.3492 31.8935 42.2696 32.0724 42.1105 32.223C41.9543 32.3707 41.7654 32.4446 41.5438 32.4446ZM45.1627 31.2727V40H43.8886V31.2727H45.1627ZM49.6979 40.1321C49.053 40.1321 48.4976 39.9943 48.0317 39.7188C47.5686 39.4403 47.2107 39.0497 46.9578 38.5469C46.7078 38.0412 46.5828 37.4489 46.5828 36.7699C46.5828 36.0994 46.7078 35.5085 46.9578 34.9972C47.2107 34.4858 47.5629 34.0866 48.0147 33.7997C48.4692 33.5128 49.0004 33.3693 49.6084 33.3693C49.9777 33.3693 50.3357 33.4304 50.6823 33.5526C51.0289 33.6747 51.3399 33.8665 51.6155 34.1278C51.8911 34.3892 52.1084 34.7287 52.2675 35.1463C52.4266 35.5611 52.5061 36.0653 52.5061 36.6591V37.1108H47.303V36.1562H51.2576C51.2576 35.821 51.1894 35.5241 51.053 35.2656C50.9166 35.0043 50.7249 34.7983 50.4777 34.6477C50.2334 34.4972 49.9465 34.4219 49.6169 34.4219C49.259 34.4219 48.9465 34.5099 48.6794 34.6861C48.4152 34.8594 48.2107 35.0866 48.0658 35.3679C47.9237 35.6463 47.8527 35.9489 47.8527 36.2756V37.0213C47.8527 37.4588 47.9294 37.831 48.0828 38.1378C48.2391 38.4446 48.4564 38.679 48.7348 38.8409C49.0132 39 49.3385 39.0795 49.7107 39.0795C49.9522 39.0795 50.1723 39.0455 50.3712 38.9773C50.5701 38.9062 50.7419 38.8011 50.8868 38.6619C51.0317 38.5227 51.1425 38.3509 51.2192 38.1463L52.4252 38.3636C52.3286 38.7187 52.1553 39.0298 51.9053 39.2969C51.6581 39.5611 51.347 39.767 50.972 39.9148C50.5999 40.0597 50.1752 40.1321 49.6979 40.1321Z" fill="#229AFC"/>
</svg>
