<svg width="70" height="43" viewBox="0 0 70 43" fill="none" xmlns="http://www.w3.org/2000/svg">
<path d="M44.2334 8H26.2334M39.2334 2V5M31.2334 2V5M31.0334 22H39.4334C41.1136 22 41.9536 22 42.5954 21.673C43.1599 21.3854 43.6188 20.9265 43.9064 20.362C44.2334 19.7202 44.2334 18.8802 44.2334 17.2V8.8C44.2334 7.11984 44.2334 6.27976 43.9064 5.63803C43.6188 5.07354 43.1599 4.6146 42.5954 4.32698C41.9536 4 41.1136 4 39.4334 4H31.0334C29.3532 4 28.5132 4 27.8714 4.32698C27.3069 4.6146 26.848 5.07354 26.5604 5.63803C26.2334 6.27976 26.2334 7.11984 26.2334 8.8V17.2C26.2334 18.8802 26.2334 19.7202 26.5604 20.362C26.848 20.9265 27.3069 21.3854 27.8714 21.673C28.5132 22 29.3532 22 31.0334 22ZM35.2307 12.3306C34.4309 11.4216 33.0973 11.1771 32.0953 12.0094C31.0933 12.8418 30.9522 14.2335 31.7391 15.2179C32.3104 15.9327 33.8927 17.3397 34.7167 18.0569C34.8954 18.2124 34.9847 18.2902 35.0894 18.321C35.18 18.3477 35.2813 18.3477 35.372 18.321C35.4766 18.2902 35.5659 18.2124 35.7446 18.0569C36.5687 17.3397 38.1509 15.9327 38.7222 15.2179C39.5091 14.2335 39.3853 12.8331 38.366 12.0094C37.3468 11.1858 36.0304 11.4216 35.2307 12.3306Z" stroke="#667085" stroke-width="2" stroke-linecap="round" stroke-linejoin="round"/>
<path d="M2.05544 40V31.2727H5.16623C5.84237 31.2727 6.40345 31.3892 6.84947 31.6222C7.29833 31.8551 7.63356 32.1776 7.85515 32.5895C8.07674 32.9986 8.18754 33.4716 8.18754 34.0085C8.18754 34.5426 8.07532 35.0128 7.85089 35.419C7.6293 35.8224 7.29407 36.1364 6.84521 36.3608C6.39919 36.5852 5.83811 36.6974 5.16197 36.6974H2.80544V35.5639H5.04265C5.46879 35.5639 5.81538 35.5028 6.08243 35.3807C6.35231 35.2585 6.54976 35.081 6.67476 34.848C6.79976 34.6151 6.86226 34.3352 6.86226 34.0085C6.86226 33.679 6.79833 33.3935 6.67049 33.152C6.54549 32.9105 6.34805 32.7259 6.07816 32.598C5.81112 32.4673 5.46027 32.402 5.02561 32.402H3.3722V40H2.05544ZM6.36368 36.0625L8.51993 40H7.01993L4.90629 36.0625H6.36368ZM12.4265 40.1321C11.7816 40.1321 11.2262 39.9943 10.7603 39.7188C10.2973 39.4403 9.93931 39.0497 9.68647 38.5469C9.43647 38.0412 9.31147 37.4489 9.31147 36.7699C9.31147 36.0994 9.43647 35.5085 9.68647 34.9972C9.93931 34.4858 10.2916 34.0866 10.7433 33.7997C11.1978 33.5128 11.7291 33.3693 12.337 33.3693C12.7064 33.3693 13.0643 33.4304 13.4109 33.5526C13.7575 33.6747 14.0686 33.8665 14.3441 34.1278C14.6197 34.3892 14.837 34.7287 14.9961 35.1463C15.1552 35.5611 15.2348 36.0653 15.2348 36.6591V37.1108H10.0316V36.1562H13.9862C13.9862 35.821 13.918 35.5241 13.7816 35.2656C13.6453 35.0043 13.4535 34.7983 13.2064 34.6477C12.962 34.4972 12.6751 34.4219 12.3456 34.4219C11.9876 34.4219 11.6751 34.5099 11.4081 34.6861C11.1439 34.8594 10.9393 35.0866 10.7944 35.3679C10.6524 35.6463 10.5814 35.9489 10.5814 36.2756V37.0213C10.5814 37.4588 10.6581 37.831 10.8115 38.1378C10.9677 38.4446 11.1851 38.679 11.4635 38.8409C11.7419 39 12.0672 39.0795 12.4393 39.0795C12.6808 39.0795 12.901 39.0455 13.0998 38.9773C13.2987 38.9062 13.4706 38.8011 13.6155 38.6619C13.7603 38.5227 13.8711 38.3509 13.9478 38.1463L15.1538 38.3636C15.0572 38.7187 14.8839 39.0298 14.6339 39.2969C14.3868 39.5611 14.0757 39.767 13.7007 39.9148C13.3285 40.0597 12.9038 40.1321 12.4265 40.1321ZM21.5533 35.0526L20.3985 35.2571C20.3502 35.1094 20.2735 34.9687 20.1684 34.8352C20.0661 34.7017 19.9269 34.5923 19.7507 34.5071C19.5746 34.4219 19.3544 34.3793 19.0902 34.3793C18.7294 34.3793 18.4283 34.4602 18.1868 34.6222C17.9454 34.7812 17.8246 34.9872 17.8246 35.2401C17.8246 35.4588 17.9056 35.6349 18.0675 35.7685C18.2294 35.902 18.4908 36.0114 18.8516 36.0966L19.8914 36.3352C20.4936 36.4744 20.9425 36.6889 21.238 36.9787C21.5334 37.2685 21.6811 37.6449 21.6811 38.108C21.6811 38.5 21.5675 38.8494 21.3402 39.1562C21.1158 39.4602 20.8019 39.6989 20.3985 39.8722C19.9979 40.0455 19.5334 40.1321 19.005 40.1321C18.2721 40.1321 17.674 39.9759 17.211 39.6634C16.7479 39.348 16.4638 38.9006 16.3587 38.321L17.5902 38.1335C17.6669 38.4545 17.8246 38.6974 18.0632 38.8622C18.3019 39.0241 18.613 39.1051 18.9965 39.1051C19.4141 39.1051 19.7479 39.0185 19.9979 38.8452C20.2479 38.669 20.3729 38.4545 20.3729 38.2017C20.3729 37.9972 20.2962 37.8253 20.1428 37.6861C19.9922 37.5469 19.7607 37.4418 19.4482 37.3707L18.3402 37.1278C17.7294 36.9886 17.2777 36.767 16.9851 36.4631C16.6954 36.1591 16.5505 35.7741 16.5505 35.3082C16.5505 34.9219 16.6584 34.5838 16.8743 34.294C17.0902 34.0043 17.3885 33.7784 17.7692 33.6165C18.1499 33.4517 18.586 33.3693 19.0775 33.3693C19.7848 33.3693 20.3417 33.5227 20.7479 33.8295C21.1542 34.1335 21.4226 34.5412 21.5533 35.0526ZM25.9031 40.1321C25.2582 40.1321 24.7028 39.9943 24.2369 39.7188C23.7738 39.4403 23.4159 39.0497 23.163 38.5469C22.913 38.0412 22.788 37.4489 22.788 36.7699C22.788 36.0994 22.913 35.5085 23.163 34.9972C23.4159 34.4858 23.7682 34.0866 24.2199 33.7997C24.6744 33.5128 25.2057 33.3693 25.8136 33.3693C26.1829 33.3693 26.5409 33.4304 26.8875 33.5526C27.2341 33.6747 27.5451 33.8665 27.8207 34.1278C28.0963 34.3892 28.3136 34.7287 28.4727 35.1463C28.6318 35.5611 28.7113 36.0653 28.7113 36.6591V37.1108H23.5082V36.1562H27.4628C27.4628 35.821 27.3946 35.5241 27.2582 35.2656C27.1218 35.0043 26.9301 34.7983 26.6829 34.6477C26.4386 34.4972 26.1517 34.4219 25.8221 34.4219C25.4642 34.4219 25.1517 34.5099 24.8846 34.6861C24.6204 34.8594 24.4159 35.0866 24.271 35.3679C24.1289 35.6463 24.0579 35.9489 24.0579 36.2756V37.0213C24.0579 37.4588 24.1346 37.831 24.288 38.1378C24.4443 38.4446 24.6616 38.679 24.94 38.8409C25.2184 39 25.5437 39.0795 25.9159 39.0795C26.1574 39.0795 26.3775 39.0455 26.5764 38.9773C26.7753 38.9062 26.9471 38.8011 27.092 38.6619C27.2369 38.5227 27.3477 38.3509 27.4244 38.1463L28.6304 38.3636C28.5338 38.7187 28.3605 39.0298 28.1105 39.2969C27.8633 39.5611 27.5522 39.767 27.1772 39.9148C26.8051 40.0597 26.3804 40.1321 25.9031 40.1321ZM30.125 40V33.4545H31.3566V34.4943H31.4248C31.5441 34.142 31.7543 33.8651 32.0554 33.6634C32.3594 33.4588 32.7032 33.3565 33.0867 33.3565C33.1662 33.3565 33.26 33.3594 33.3679 33.3651C33.4787 33.3707 33.5654 33.3778 33.6279 33.3864V34.6051C33.5767 34.5909 33.4858 34.5753 33.3552 34.5582C33.2245 34.5384 33.0938 34.5284 32.9631 34.5284C32.662 34.5284 32.3935 34.5923 32.1577 34.7202C31.9248 34.8452 31.7401 35.0199 31.6037 35.2443C31.4674 35.4659 31.3992 35.7187 31.3992 36.0028V40H30.125ZM40.5292 33.4545L38.1556 40H36.7919L34.4141 33.4545H35.782L37.4397 38.4915H37.5079L39.1613 33.4545H40.5292ZM43.4439 40.1449C43.0292 40.1449 42.6542 40.0682 42.3189 39.9148C41.9837 39.7585 41.7181 39.5327 41.5221 39.2372C41.3289 38.9418 41.2323 38.5795 41.2323 38.1506C41.2323 37.7812 41.3033 37.4773 41.4454 37.2386C41.5874 37 41.7792 36.8111 42.0206 36.6719C42.2621 36.5327 42.532 36.4276 42.8303 36.3565C43.1286 36.2855 43.4326 36.2315 43.7422 36.1946C44.1343 36.1491 44.4525 36.1122 44.6968 36.0838C44.9411 36.0526 45.1186 36.0028 45.2294 35.9347C45.3402 35.8665 45.3956 35.7557 45.3956 35.6023V35.5724C45.3956 35.2003 45.2905 34.9119 45.0803 34.7074C44.8729 34.5028 44.5632 34.4006 44.1513 34.4006C43.7223 34.4006 43.3843 34.4957 43.1371 34.6861C42.8928 34.8736 42.7238 35.0824 42.63 35.3125L41.4326 35.0398C41.5746 34.642 41.782 34.321 42.0547 34.0767C42.3303 33.8295 42.6471 33.6506 43.005 33.5398C43.363 33.4261 43.7394 33.3693 44.1343 33.3693C44.3956 33.3693 44.6726 33.4006 44.9652 33.4631C45.2607 33.5227 45.5363 33.6335 45.7919 33.7955C46.0505 33.9574 46.2621 34.1889 46.4269 34.4901C46.5917 34.7884 46.674 35.1761 46.674 35.6534V40H45.4297V39.1051H45.3786C45.2962 39.2699 45.1726 39.4318 45.0079 39.5909C44.8431 39.75 44.6314 39.8821 44.3729 39.9872C44.1144 40.0923 43.8047 40.1449 43.4439 40.1449ZM43.7209 39.1222C44.0732 39.1222 44.3743 39.0526 44.6243 38.9134C44.8772 38.7741 45.0689 38.5923 45.1996 38.3679C45.3331 38.1406 45.3999 37.8977 45.3999 37.6392V36.7955C45.3544 36.8409 45.2664 36.8835 45.1357 36.9233C45.0079 36.9602 44.8615 36.9929 44.6968 37.0213C44.532 37.0469 44.3715 37.071 44.2152 37.0938C44.059 37.1136 43.9283 37.1307 43.8232 37.1449C43.576 37.1761 43.3502 37.2287 43.1456 37.3026C42.9439 37.3764 42.782 37.483 42.6598 37.6222C42.5405 37.7585 42.4809 37.9403 42.4809 38.1676C42.4809 38.483 42.5973 38.7216 42.8303 38.8835C43.0632 39.0426 43.3601 39.1222 43.7209 39.1222ZM51.4265 33.4545V34.4773H47.8512V33.4545H51.4265ZM48.8101 31.8864H50.0842V38.0781C50.0842 38.3253 50.1211 38.5114 50.195 38.6364C50.2689 38.7585 50.364 38.8423 50.4805 38.8878C50.5998 38.9304 50.7291 38.9517 50.8683 38.9517C50.9706 38.9517 51.0601 38.9446 51.1368 38.9304C51.2135 38.9162 51.2731 38.9048 51.3157 38.8963L51.5458 39.9489C51.472 39.9773 51.3669 40.0057 51.2305 40.0341C51.0941 40.0653 50.9237 40.0824 50.7191 40.0852C50.3839 40.0909 50.0714 40.0312 49.7816 39.9062C49.4919 39.7812 49.2575 39.5881 49.0785 39.3267C48.8995 39.0653 48.8101 38.7372 48.8101 38.3423V31.8864ZM52.836 40V33.4545H54.1101V40H52.836ZM53.4794 32.4446C53.2579 32.4446 53.0675 32.3707 52.9084 32.223C52.7522 32.0724 52.674 31.8935 52.674 31.6861C52.674 31.4759 52.7522 31.2969 52.9084 31.1491C53.0675 30.9986 53.2579 30.9233 53.4794 30.9233C53.701 30.9233 53.89 30.9986 54.0462 31.1491C54.2053 31.2969 54.2848 31.4759 54.2848 31.6861C54.2848 31.8935 54.2053 32.0724 54.0462 32.223C53.89 32.3707 53.701 32.4446 53.4794 32.4446ZM58.5814 40.1321C57.9677 40.1321 57.4322 39.9915 56.9748 39.7102C56.5174 39.429 56.1623 39.0355 55.9095 38.5298C55.6566 38.0241 55.5302 37.4332 55.5302 36.7571C55.5302 36.0781 55.6566 35.4844 55.9095 34.9759C56.1623 34.4673 56.5174 34.0724 56.9748 33.7912C57.4322 33.5099 57.9677 33.3693 58.5814 33.3693C59.195 33.3693 59.7305 33.5099 60.1879 33.7912C60.6453 34.0724 61.0004 34.4673 61.2532 34.9759C61.5061 35.4844 61.6325 36.0781 61.6325 36.7571C61.6325 37.4332 61.5061 38.0241 61.2532 38.5298C61.0004 39.0355 60.6453 39.429 60.1879 39.7102C59.7305 39.9915 59.195 40.1321 58.5814 40.1321ZM58.5856 39.0625C58.9833 39.0625 59.3129 38.9574 59.5743 38.7472C59.8356 38.5369 60.0288 38.2571 60.1538 37.9077C60.2816 37.5582 60.3456 37.1733 60.3456 36.7528C60.3456 36.3352 60.2816 35.9517 60.1538 35.6023C60.0288 35.25 59.8356 34.9673 59.5743 34.7543C59.3129 34.5412 58.9833 34.4347 58.5856 34.4347C58.1851 34.4347 57.8527 34.5412 57.5885 34.7543C57.3271 34.9673 57.1325 35.25 57.0047 35.6023C56.8797 35.9517 56.8172 36.3352 56.8172 36.7528C56.8172 37.1733 56.8797 37.5582 57.0047 37.9077C57.1325 38.2571 57.3271 38.5369 57.5885 38.7472C57.8527 38.9574 58.1851 39.0625 58.5856 39.0625ZM64.3289 36.1136V40H63.0547V33.4545H64.2777V34.5199H64.3587C64.5093 34.1733 64.7451 33.8949 65.0661 33.6847C65.39 33.4744 65.7976 33.3693 66.2891 33.3693C66.7351 33.3693 67.1257 33.4631 67.461 33.6506C67.7962 33.8352 68.0561 34.1108 68.2408 34.4773C68.4255 34.8437 68.5178 35.2969 68.5178 35.8366V40H67.2436V35.9901C67.2436 35.5156 67.1201 35.1449 66.8729 34.8778C66.6257 34.608 66.2863 34.473 65.8544 34.473C65.559 34.473 65.2962 34.5369 65.0661 34.6648C64.8388 34.7926 64.6584 34.9801 64.5249 35.2273C64.3942 35.4716 64.3289 35.767 64.3289 36.1136Z" fill="#667085"/>
</svg>
