<svg width="69" height="43" viewBox="0 0 69 43" fill="none" xmlns="http://www.w3.org/2000/svg">
<path d="M43.3 21L38.95 16.65M41.3 11C41.3 15.4183 37.7183 19 33.3 19C28.8817 19 25.3 15.4183 25.3 11C25.3 6.58172 28.8817 3 33.3 3C37.7183 3 41.3 6.58172 41.3 11Z" stroke="#667085" stroke-width="2" stroke-linecap="round" stroke-linejoin="round"/>
<path d="M20.0207 33.5653C19.9752 33.1619 19.7877 32.8494 19.4582 32.6278C19.1287 32.4034 18.7139 32.2912 18.2139 32.2912C17.8559 32.2912 17.5463 32.348 17.2849 32.4616C17.0235 32.5724 16.8204 32.7259 16.6755 32.9219C16.5335 33.1151 16.4625 33.3352 16.4625 33.5824C16.4625 33.7898 16.5108 33.9687 16.6074 34.1193C16.7068 34.2699 16.836 34.3963 16.9951 34.4986C17.1571 34.598 17.3304 34.6818 17.515 34.75C17.6997 34.8153 17.8772 34.8693 18.0477 34.9119L18.9 35.1335C19.1784 35.2017 19.4639 35.294 19.7565 35.4105C20.0491 35.527 20.3204 35.6804 20.5704 35.8707C20.8204 36.0611 21.0221 36.2969 21.1755 36.5781C21.3318 36.8594 21.4099 37.196 21.4099 37.5881C21.4099 38.0824 21.2821 38.5213 21.0264 38.9048C20.7735 39.2884 20.4056 39.5909 19.9227 39.8125C19.4426 40.0341 18.8616 40.1449 18.1798 40.1449C17.5264 40.1449 16.961 40.0412 16.4838 39.8338C16.0065 39.6264 15.6329 39.3324 15.363 38.9517C15.0931 38.5682 14.944 38.1136 14.9156 37.5881H16.2366C16.2622 37.9034 16.3645 38.1662 16.5434 38.3764C16.7252 38.5838 16.9568 38.7386 17.238 38.8409C17.5221 38.9403 17.8332 38.9901 18.1713 38.9901C18.5434 38.9901 18.8744 38.9318 19.1642 38.8153C19.4568 38.696 19.6869 38.5312 19.8545 38.321C20.0221 38.108 20.1059 37.8594 20.1059 37.5753C20.1059 37.3168 20.0321 37.1051 19.8843 36.9403C19.7395 36.7756 19.542 36.6392 19.292 36.5312C19.0449 36.4233 18.765 36.3281 18.4525 36.2457L17.4213 35.9645C16.7224 35.7741 16.1684 35.4943 15.7593 35.125C15.3531 34.7557 15.15 34.267 15.15 33.6591C15.15 33.1562 15.2863 32.7173 15.5591 32.3423C15.8318 31.9673 16.2011 31.6761 16.667 31.4688C17.1329 31.2585 17.6585 31.1534 18.2437 31.1534C18.8346 31.1534 19.3559 31.2571 19.8076 31.4645C20.2622 31.6719 20.6201 31.9574 20.8815 32.321C21.1429 32.6818 21.2792 33.0966 21.2906 33.5653H20.0207ZM25.7022 40.1321C25.0573 40.1321 24.5019 39.9943 24.036 39.7188C23.5729 39.4403 23.2149 39.0497 22.9621 38.5469C22.7121 38.0412 22.5871 37.4489 22.5871 36.7699C22.5871 36.0994 22.7121 35.5085 22.9621 34.9972C23.2149 34.4858 23.5672 34.0866 24.0189 33.7997C24.4735 33.5128 25.0047 33.3693 25.6127 33.3693C25.982 33.3693 26.3399 33.4304 26.6865 33.5526C27.0331 33.6747 27.3442 33.8665 27.6198 34.1278C27.8953 34.3892 28.1127 34.7287 28.2718 35.1463C28.4309 35.5611 28.5104 36.0653 28.5104 36.6591V37.1108H23.3073V36.1562H27.2618C27.2618 35.821 27.1936 35.5241 27.0573 35.2656C26.9209 35.0043 26.7292 34.7983 26.482 34.6477C26.2377 34.4972 25.9507 34.4219 25.6212 34.4219C25.2632 34.4219 24.9507 34.5099 24.6837 34.6861C24.4195 34.8594 24.2149 35.0866 24.0701 35.3679C23.928 35.6463 23.857 35.9489 23.857 36.2756V37.0213C23.857 37.4588 23.9337 37.831 24.0871 38.1378C24.2434 38.4446 24.4607 38.679 24.7391 38.8409C25.0175 39 25.3428 39.0795 25.7149 39.0795C25.9564 39.0795 26.1766 39.0455 26.3755 38.9773C26.5743 38.9062 26.7462 38.8011 26.8911 38.6619C27.036 38.5227 27.1468 38.3509 27.2235 38.1463L28.4294 38.3636C28.3328 38.7187 28.1596 39.0298 27.9096 39.2969C27.6624 39.5611 27.3513 39.767 26.9763 39.9148C26.6042 40.0597 26.1794 40.1321 25.7022 40.1321ZM31.8289 40.1449C31.4142 40.1449 31.0392 40.0682 30.7039 39.9148C30.3687 39.7585 30.1031 39.5327 29.9071 39.2372C29.7139 38.9418 29.6173 38.5795 29.6173 38.1506C29.6173 37.7812 29.6883 37.4773 29.8304 37.2386C29.9724 37 30.1642 36.8111 30.4056 36.6719C30.6471 36.5327 30.917 36.4276 31.2153 36.3565C31.5136 36.2855 31.8176 36.2315 32.1272 36.1946C32.5193 36.1491 32.8375 36.1122 33.0818 36.0838C33.3261 36.0526 33.5037 36.0028 33.6145 35.9347C33.7252 35.8665 33.7806 35.7557 33.7806 35.6023V35.5724C33.7806 35.2003 33.6755 34.9119 33.4653 34.7074C33.2579 34.5028 32.9483 34.4006 32.5363 34.4006C32.1074 34.4006 31.7693 34.4957 31.5221 34.6861C31.2778 34.8736 31.1088 35.0824 31.015 35.3125L29.8176 35.0398C29.9596 34.642 30.167 34.321 30.4397 34.0767C30.7153 33.8295 31.0321 33.6506 31.39 33.5398C31.748 33.4261 32.1244 33.3693 32.5193 33.3693C32.7806 33.3693 33.0576 33.4006 33.3502 33.4631C33.6457 33.5227 33.9213 33.6335 34.177 33.7955C34.4355 33.9574 34.6471 34.1889 34.8119 34.4901C34.9767 34.7884 35.0591 35.1761 35.0591 35.6534V40H33.8147V39.1051H33.7636C33.6812 39.2699 33.5576 39.4318 33.3929 39.5909C33.2281 39.75 33.0164 39.8821 32.7579 39.9872C32.4994 40.0923 32.1897 40.1449 31.8289 40.1449ZM32.1059 39.1222C32.4582 39.1222 32.7593 39.0526 33.0093 38.9134C33.2622 38.7741 33.4539 38.5923 33.5846 38.3679C33.7181 38.1406 33.7849 37.8977 33.7849 37.6392V36.7955C33.7395 36.8409 33.6514 36.8835 33.5207 36.9233C33.3929 36.9602 33.2466 36.9929 33.0818 37.0213C32.917 37.0469 32.7565 37.071 32.6002 37.0938C32.444 37.1136 32.3133 37.1307 32.2082 37.1449C31.961 37.1761 31.7352 37.2287 31.5306 37.3026C31.3289 37.3764 31.167 37.483 31.0449 37.6222C30.9255 37.7585 30.8659 37.9403 30.8659 38.1676C30.8659 38.483 30.9824 38.7216 31.2153 38.8835C31.4483 39.0426 31.7451 39.1222 32.1059 39.1222ZM36.7561 40V33.4545H37.9877V34.4943H38.0559C38.1752 34.142 38.3854 33.8651 38.6865 33.6634C38.9905 33.4588 39.3343 33.3565 39.7178 33.3565C39.7973 33.3565 39.8911 33.3594 39.999 33.3651C40.1098 33.3707 40.1965 33.3778 40.259 33.3864V34.6051C40.2078 34.5909 40.1169 34.5753 39.9863 34.5582C39.8556 34.5384 39.7249 34.5284 39.5942 34.5284C39.2931 34.5284 39.0246 34.5923 38.7888 34.7202C38.5559 34.8452 38.3712 35.0199 38.2348 35.2443C38.0985 35.4659 38.0303 35.7187 38.0303 36.0028V40H36.7561ZM43.8843 40.1321C43.2508 40.1321 42.7054 39.9886 42.248 39.7017C41.7934 39.4119 41.444 39.0128 41.1997 38.5043C40.9554 37.9957 40.8332 37.4134 40.8332 36.7571C40.8332 36.0923 40.9582 35.5057 41.2082 34.9972C41.4582 34.4858 41.8105 34.0866 42.265 33.7997C42.7196 33.5128 43.2551 33.3693 43.8716 33.3693C44.3687 33.3693 44.8119 33.4616 45.2011 33.6463C45.5903 33.8281 45.9042 34.0838 46.1429 34.4134C46.3843 34.7429 46.5278 35.1278 46.5733 35.5682H45.3332C45.265 35.2614 45.1088 34.9972 44.8645 34.7756C44.623 34.554 44.2991 34.4432 43.8929 34.4432C43.5377 34.4432 43.2267 34.5369 42.9596 34.7244C42.6954 34.9091 42.4895 35.1733 42.3417 35.517C42.194 35.858 42.1201 36.2614 42.1201 36.7273C42.1201 37.2045 42.1926 37.6165 42.3375 37.9631C42.4824 38.3097 42.6869 38.5781 42.9511 38.7685C43.2181 38.9588 43.5321 39.054 43.8929 39.054C44.1343 39.054 44.3531 39.0099 44.5491 38.9219C44.748 38.831 44.9142 38.7017 45.0477 38.5341C45.1841 38.3665 45.2792 38.1648 45.3332 37.929H46.5733C46.5278 38.3523 46.39 38.7301 46.1599 39.0625C45.9298 39.3949 45.6216 39.6562 45.2352 39.8466C44.8517 40.0369 44.4014 40.1321 43.8843 40.1321ZM49.21 36.1136V40H47.9358V31.2727H49.1929V34.5199H49.2739C49.4273 34.1676 49.6617 33.8878 49.977 33.6804C50.2924 33.473 50.7043 33.3693 51.2128 33.3693C51.6617 33.3693 52.0537 33.4616 52.389 33.6463C52.727 33.831 52.9884 34.1065 53.173 34.473C53.3605 34.8366 53.4543 35.2912 53.4543 35.8366V40H52.1801V35.9901C52.1801 35.5099 52.0566 35.1378 51.8094 34.8736C51.5623 34.6065 51.2185 34.473 50.7782 34.473C50.477 34.473 50.2071 34.5369 49.9685 34.6648C49.7327 34.7926 49.5466 34.9801 49.4103 35.2273C49.2767 35.4716 49.21 35.767 49.21 36.1136Z" fill="#667085"/>
</svg>
