<svg width="70" height="43" viewBox="0 0 70 43" fill="none" xmlns="http://www.w3.org/2000/svg">
<mask id="mask0_1_2468" style="mask-type:alpha" maskUnits="userSpaceOnUse" x="22" y="0" width="25" height="24">
<rect x="22.7665" width="24" height="24" fill="#D9D9D9"/>
</mask>
<g mask="url(#mask0_1_2468)">
<path d="M42.3665 21L36.0165 14.65L37.4165 13.25L43.7665 19.6L42.3665 21ZM28.7165 20.3C27.7165 19.3 26.9748 18.175 26.4915 16.925C26.0081 15.675 25.7665 14.4 25.7665 13.1C25.7665 11.8 26.0081 10.5333 26.4915 9.30001C26.9748 8.06667 27.7165 6.95001 28.7165 5.95001C29.7165 4.95001 30.8373 4.20417 32.079 3.71251C33.3206 3.22084 34.5915 2.97501 35.8915 2.97501C37.1915 2.97501 38.4623 3.22084 39.704 3.71251C40.9456 4.20417 42.0665 4.95001 43.0665 5.95001L28.7165 20.3ZM28.9165 17.25L30.2665 15.9C29.9998 15.55 29.7456 15.1917 29.504 14.825C29.2623 14.4583 29.0415 14.0917 28.8415 13.725C28.6415 13.3583 28.4665 12.9917 28.3165 12.625C28.1665 12.2583 28.0331 11.9 27.9165 11.55C27.7331 12.5333 27.7206 13.5167 27.879 14.5C28.0373 15.4833 28.3831 16.4 28.9165 17.25ZM31.7165 14.5L37.2665 8.90001C36.5498 8.35001 35.829 7.90417 35.104 7.56251C34.379 7.22084 33.6998 6.98751 33.0665 6.86251C32.4331 6.73751 31.8623 6.71667 31.354 6.80001C30.8456 6.88334 30.4498 7.06667 30.1665 7.35001C29.8831 7.65001 29.6998 8.05417 29.6165 8.56251C29.5331 9.07084 29.554 9.64584 29.679 10.2875C29.804 10.9292 30.0373 11.6083 30.379 12.325C30.7206 13.0417 31.1665 13.7667 31.7165 14.5ZM38.6665 7.50001L40.0665 6.15001C39.1831 5.61667 38.2498 5.26667 37.2665 5.10001C36.2831 4.93334 35.2998 4.95001 34.3165 5.15001C34.6831 5.26667 35.0498 5.40001 35.4165 5.55001C35.7831 5.70001 36.1498 5.87084 36.5165 6.06251C36.8831 6.25417 37.2456 6.47084 37.604 6.71251C37.9623 6.95417 38.3165 7.21667 38.6665 7.50001Z" fill="#667085"/>
</g>
<path d="M21.0099 32.4062V31.2727H27.7642V32.4062H25.0412V40H23.7287V32.4062H21.0099ZM28.4748 40V33.4545H29.7063V34.4943H29.7745C29.8938 34.142 30.104 33.8651 30.4052 33.6634C30.7091 33.4588 31.0529 33.3565 31.4364 33.3565C31.516 33.3565 31.6097 33.3594 31.7177 33.3651C31.8285 33.3707 31.9151 33.3778 31.9776 33.3864V34.6051C31.9265 34.5909 31.8356 34.5753 31.7049 34.5582C31.5742 34.5384 31.4435 34.5284 31.3128 34.5284C31.0117 34.5284 30.7432 34.5923 30.5074 34.7202C30.2745 34.8452 30.0898 35.0199 29.9535 35.2443C29.8171 35.4659 29.7489 35.7187 29.7489 36.0028V40H28.4748ZM33.0802 40V33.4545H34.3544V40H33.0802ZM33.7237 32.4446C33.5021 32.4446 33.3118 32.3707 33.1527 32.223C32.9964 32.0724 32.9183 31.8935 32.9183 31.6861C32.9183 31.4759 32.9964 31.2969 33.1527 31.1491C33.3118 30.9986 33.5021 30.9233 33.7237 30.9233C33.9453 30.9233 34.1342 30.9986 34.2905 31.1491C34.4496 31.2969 34.5291 31.4759 34.5291 31.6861C34.5291 31.8935 34.4496 32.0724 34.2905 32.223C34.1342 32.3707 33.9453 32.4446 33.7237 32.4446ZM36.0685 42.4545V33.4545H37.3128V34.5156H37.4194C37.4932 34.3793 37.5998 34.2216 37.739 34.0426C37.8782 33.8636 38.0714 33.7074 38.3185 33.5739C38.5657 33.4375 38.8924 33.3693 39.2986 33.3693C39.827 33.3693 40.2986 33.5028 40.7134 33.7699C41.1282 34.0369 41.4535 34.4219 41.6893 34.9247C41.9279 35.4276 42.0472 36.0327 42.0472 36.7401C42.0472 37.4474 41.9293 38.054 41.6935 38.5597C41.4577 39.0625 41.1339 39.4503 40.7219 39.723C40.31 39.9929 39.8398 40.1278 39.3114 40.1278C38.9137 40.1278 38.5884 40.0611 38.3356 39.9276C38.0856 39.794 37.8895 39.6378 37.7475 39.4588C37.6055 39.2798 37.4961 39.1207 37.4194 38.9815H37.3427V42.4545H36.0685ZM37.3171 36.7273C37.3171 37.1875 37.3839 37.5909 37.5174 37.9375C37.6509 38.2841 37.8441 38.5554 38.0969 38.7514C38.3498 38.9446 38.6594 39.0412 39.0259 39.0412C39.4066 39.0412 39.7248 38.9403 39.9805 38.7386C40.2361 38.5341 40.4293 38.2571 40.56 37.9077C40.6935 37.5582 40.7603 37.1648 40.7603 36.7273C40.7603 36.2955 40.6949 35.9077 40.5643 35.5639C40.4364 35.2202 40.2432 34.9489 39.9847 34.75C39.729 34.5511 39.4094 34.4517 39.0259 34.4517C38.6566 34.4517 38.3441 34.5469 38.0884 34.7372C37.8356 34.9276 37.6438 35.1932 37.5131 35.5341C37.3824 35.875 37.3171 36.2727 37.3171 36.7273ZM48.3796 35.0526L47.2248 35.2571C47.1765 35.1094 47.0998 34.9687 46.9947 34.8352C46.8924 34.7017 46.7532 34.5923 46.577 34.5071C46.4009 34.4219 46.1807 34.3793 45.9165 34.3793C45.5557 34.3793 45.2546 34.4602 45.0131 34.6222C44.7716 34.7812 44.6509 34.9872 44.6509 35.2401C44.6509 35.4588 44.7319 35.6349 44.8938 35.7685C45.0557 35.902 45.3171 36.0114 45.6779 36.0966L46.7177 36.3352C47.3199 36.4744 47.7688 36.6889 48.0643 36.9787C48.3597 37.2685 48.5074 37.6449 48.5074 38.108C48.5074 38.5 48.3938 38.8494 48.1665 39.1562C47.9421 39.4602 47.6282 39.6989 47.2248 39.8722C46.8242 40.0455 46.3597 40.1321 45.8313 40.1321C45.0984 40.1321 44.5003 39.9759 44.0373 39.6634C43.5742 39.348 43.2901 38.9006 43.185 38.321L44.4165 38.1335C44.4932 38.4545 44.6509 38.6974 44.8895 38.8622C45.1282 39.0241 45.4393 39.1051 45.8228 39.1051C46.2404 39.1051 46.5742 39.0185 46.8242 38.8452C47.0742 38.669 47.1992 38.4545 47.1992 38.2017C47.1992 37.9972 47.1225 37.8253 46.9691 37.6861C46.8185 37.5469 46.587 37.4418 46.2745 37.3707L45.1665 37.1278C44.5557 36.9886 44.104 36.767 43.8114 36.4631C43.5216 36.1591 43.3768 35.7741 43.3768 35.3082C43.3768 34.9219 43.4847 34.5838 43.7006 34.294C43.9165 34.0043 44.2148 33.7784 44.5955 33.6165C44.9762 33.4517 45.4123 33.3693 45.9037 33.3693C46.6111 33.3693 47.168 33.5227 47.5742 33.8295C47.9805 34.1335 48.2489 34.5412 48.3796 35.0526Z" fill="#667085"/>
</svg>
